<svg xmlns="http://www.w3.org/2000/svg" viewBox="0 0 200 200">
  <!-- Ears -->
  <ellipse cx="80" cy="40" rx="14" ry="40" fill="#ECE0D1"/>
  <ellipse cx="120" cy="40" rx="14" ry="40" fill="#ECE0D1"/>
  <ellipse cx="80" cy="40" rx="8" ry="30" fill="#FFB6C1"/>
  <ellipse cx="120" cy="40" rx="8" ry="30" fill="#FFB6C1"/>
  <!-- Body -->
  <ellipse cx="100" cy="145" rx="40" ry="35" fill="#ECE0D1"/>
  <!-- Head -->
  <circle cx="100" cy="95" r="35" fill="#ECE0D1"/>
  <!-- Eyes -->
  <circle cx="87" cy="88" r="6" fill="white"/>
  <circle cx="113" cy="88" r="6" fill="white"/>
  <circle cx="88" cy="89" r="4" fill="#E74C3C"/>
  <circle cx="114" cy="89" r="4" fill="#E74C3C"/>
  <circle cx="90" cy="87" r="1.5" fill="white"/>
  <circle cx="116" cy="87" r="1.5" fill="white"/>
  <!-- Nose -->
  <ellipse cx="100" cy="100" rx="5" ry="4" fill="#FFB6C1"/>
  <!-- Mouth -->
  <path d="M 95 104 Q 100 110, 105 104" stroke="#BDC3C7" stroke-width="1.5" fill="none"/>
  <!-- Whiskers -->
  <line x1="65" y1="98" x2="90" y2="100" stroke="#BDC3C7" stroke-width="1"/>
  <line x1="65" y1="104" x2="90" y2="103" stroke="#BDC3C7" stroke-width="1"/>
  <line x1="110" y1="100" x2="135" y2="98" stroke="#BDC3C7" stroke-width="1"/>
  <line x1="110" y1="103" x2="135" y2="104" stroke="#BDC3C7" stroke-width="1"/>
  <!-- Feet -->
  <ellipse cx="80" cy="172" rx="15" ry="8" fill="#ECE0D1"/>
  <ellipse cx="120" cy="172" rx="15" ry="8" fill="#ECE0D1"/>
</svg>