<svg xmlns="http://www.w3.org/2000/svg" viewBox="0 0 200 200">
  <!-- Husk leaves -->
  <path d="M 70 90 Q 55 130, 65 175 Q 75 180, 80 170 Q 75 130, 80 90 Z" fill="#8BC34A"/>
  <path d="M 130 90 Q 145 130, 135 175 Q 125 180, 120 170 Q 125 130, 120 90 Z" fill="#8BC34A"/>
  <!-- Corn cob -->
  <rect x="78" y="50" width="44" height="120" rx="22" fill="#F1C40F"/>
  <!-- Kernel rows -->
  <circle cx="88" cy="70" r="6" fill="#F39C12"/>
  <circle cx="100" cy="70" r="6" fill="#F39C12"/>
  <circle cx="112" cy="70" r="6" fill="#F39C12"/>
  <circle cx="88" cy="90" r="6" fill="#E67E22"/>
  <circle cx="100" cy="90" r="6" fill="#F39C12"/>
  <circle cx="112" cy="90" r="6" fill="#E67E22"/>
  <circle cx="88" cy="110" r="6" fill="#F39C12"/>
  <circle cx="100" cy="110" r="6" fill="#E67E22"/>
  <circle cx="112" cy="110" r="6" fill="#F39C12"/>
  <circle cx="88" cy="130" r="6" fill="#E67E22"/>
  <circle cx="100" cy="130" r="6" fill="#F39C12"/>
  <circle cx="112" cy="130" r="6" fill="#E67E22"/>
  <circle cx="88" cy="150" r="6" fill="#F39C12"/>
  <circle cx="100" cy="150" r="6" fill="#F39C12"/>
  <circle cx="112" cy="150" r="6" fill="#F39C12"/>
</svg>